<?xml version="1.0" encoding="utf-8"?>
<!-- Generator: Adobe Illustrator 17.0.0, SVG Export Plug-In . SVG Version: 6.00 Build 0)  -->
<!DOCTYPE svg PUBLIC "-//W3C//DTD SVG 1.1//EN" "http://www.w3.org/Graphics/SVG/1.1/DTD/svg11.dtd">
<svg version="1.1" id="Calque_1" xmlns="http://www.w3.org/2000/svg" xmlns:xlink="http://www.w3.org/1999/xlink" x="0px" y="0px"
	 width="347px" height="443px" viewBox="0 0 347 443" enable-background="new 0 0 347 443" xml:space="preserve">
<g id="_x34_zX1Dd.tif" display="none">
	
		<image display="inline" overflow="visible" width="800" height="600" id="Layer_0_4_" xlink:href="BD0C7E6E8D238E15.png"  transform="matrix(1.4682 0 0 1.3411 -684.6668 -130.7268)">
	</image>
</g>
<g id="Macbook_Pro" display="none">
	<g display="inline">
		<path fill="#FFFFFF" stroke="#000000" stroke-width="3" stroke-miterlimit="10" d="M342.5,529.774
			c0,2.855-2.411,5.169-5.386,5.169h-966.228c-2.975,0-5.386-2.314-5.386-5.169v-19.328c0-2.855,2.411-5.169,5.386-5.169h966.228
			c2.975,0,5.386,2.314,5.386,5.169V529.774z"/>
		<path fill="#FFFFFF" stroke="#000000" stroke-width="3" stroke-miterlimit="10" d="M235.61,475.932
			c0,16.207-0.245,29.345-0.245,29.345h-762.731c0,0-0.245-13.138-0.245-29.345V33.391c0-16.207,13.252-29.345,29.599-29.345
			h704.022c16.347,0,29.599,13.138,29.599,29.345V475.932z"/>
		<g>
			<path fill="#FFFFFF" d="M-149.669,24.138c-1.906,0-3.457-1.551-3.457-3.457s1.551-3.457,3.457-3.457s3.457,1.551,3.457,3.457
				S-147.763,24.138-149.669,24.138z"/>
			<path d="M-149.669,18.724c1.081,0,1.957,0.876,1.957,1.957s-0.876,1.957-1.957,1.957s-1.957-0.876-1.957-1.957
				S-150.75,18.724-149.669,18.724 M-149.669,15.724c-2.733,0-4.957,2.224-4.957,4.957s2.224,4.957,4.957,4.957
				s4.957-2.224,4.957-4.957S-146.936,15.724-149.669,15.724L-149.669,15.724z"/>
		</g>
		<path fill="none" stroke="#000000" stroke-width="3" stroke-miterlimit="10" d="M-215.936,505.461v6.41
			c0,4.323,3.417,7.828,7.633,7.828h125.701c4.216,0,7.633-3.505,7.633-7.828v-6.41"/>
		
			<rect x="-497.735" y="34.537" fill="#FFFFFF" stroke="#000000" stroke-width="3" stroke-miterlimit="10" width="704" height="438"/>
	</g>
</g>
<g id="iPad">
	<path fill="#FFFFFF" stroke="#000000" stroke-width="3" stroke-miterlimit="10" d="M18.532,440.453
		c-8.32,0-15.065-6.691-15.065-14.945V16.945C3.468,8.691,10.212,2,18.532,2h310.403C337.255,2,344,8.691,344,16.945v408.563
		c0,8.254-6.745,14.945-15.065,14.945H18.532z"/>
	
		<rect x="39.202" y="39.487" fill-rule="evenodd" clip-rule="evenodd" fill="none" stroke="#000000" stroke-width="3" stroke-miterlimit="10" width="269.063" height="358.75"/>
	<g>
		<path fill="#FFFFFF" d="M173.734,23.907c-1.6,0-2.901-1.302-2.901-2.901s1.302-2.901,2.901-2.901s2.901,1.302,2.901,2.901
			S175.333,23.907,173.734,23.907z"/>
		<path d="M173.734,19.605c0.774,0,1.401,0.627,1.401,1.401c0,0.774-0.627,1.401-1.401,1.401s-1.401-0.627-1.401-1.401
			C172.332,20.232,172.96,19.605,173.734,19.605 M173.734,16.605c-2.427,0-4.401,1.974-4.401,4.401s1.974,4.401,4.401,4.401
			s4.401-1.974,4.401-4.401S176.161,16.605,173.734,16.605L173.734,16.605z"/>
	</g>
	<g>
		<path d="M173.734,408.391c6.087,0,11.021,4.934,11.021,11.021c0,6.086-4.934,11.021-11.021,11.021s-11.021-4.934-11.021-11.021
			C162.713,413.325,167.647,408.391,173.734,408.391 M173.734,405.391c-7.731,0-14.021,6.29-14.021,14.021
			s6.29,14.021,14.021,14.021s14.021-6.29,14.021-14.021S181.465,405.391,173.734,405.391L173.734,405.391z"/>
	</g>
	<path fill="none" stroke="#000000" stroke-width="3" stroke-miterlimit="10" d="M171.061,423.925c-1.016,0-1.84-0.824-1.84-1.84
		v-5.346c0-1.016,0.824-1.84,1.84-1.84h5.346c1.016,0,1.84,0.824,1.84,1.84v5.346c0,1.016-0.824,1.84-1.84,1.84H171.061z"/>
</g>
<g id="iPhone" display="none">
	<path display="inline" fill="#FFFFFF" stroke="#000000" stroke-width="3" stroke-miterlimit="10" d="M-86.026,576.939
		c-10.81,0-19.573-8.763-19.573-19.573V326.573c0-10.81,8.763-19.573,19.573-19.573H3.474c10.81,0,19.573,8.763,19.573,19.573
		v230.793c0,10.81-8.763,19.573-19.573,19.573H-86.026z"/>
	<g display="inline">
		<path d="M-41.276,546.182c5.858,0,10.608,4.749,10.608,10.608c0,5.858-4.749,10.608-10.608,10.608
			c-5.859,0-10.608-4.749-10.608-10.608C-51.884,550.932-47.135,546.182-41.276,546.182 M-41.276,543.182
			c-7.503,0-13.608,6.104-13.608,13.608c0,7.503,6.104,13.608,13.608,13.608s13.608-6.104,13.608-13.608
			C-27.668,549.287-33.773,543.182-41.276,543.182L-41.276,543.182z"/>
	</g>
	<path display="inline" fill="none" stroke="#000000" stroke-width="3" stroke-miterlimit="10" d="M-43.849,561.134
		c-0.978,0-1.771-0.793-1.771-1.771v-5.146c0-0.978,0.793-1.771,1.771-1.771h5.146c0.978,0,1.771,0.793,1.771,1.771v5.146
		c0,0.978-0.793,1.771-1.771,1.771H-43.849z"/>
	
		<rect x="-95.23" y="345.778" display="inline" fill-rule="evenodd" clip-rule="evenodd" fill="none" stroke="#000000" stroke-width="3" stroke-miterlimit="10" width="107.907" height="191.538"/>
	
		<circle display="inline" fill-rule="evenodd" clip-rule="evenodd" fill="none" stroke="#000000" stroke-width="3" stroke-miterlimit="10" cx="-41.276" cy="327.064" r="2.528"/>
</g>
</svg>
