<?xml version="1.0" encoding="utf-8"?>
<!-- Generator: Adobe Illustrator 17.0.0, SVG Export Plug-In . SVG Version: 6.00 Build 0)  -->
<!DOCTYPE svg PUBLIC "-//W3C//DTD SVG 1.1//EN" "http://www.w3.org/Graphics/SVG/1.1/DTD/svg11.dtd">
<svg version="1.1" id="Calque_1" xmlns="http://www.w3.org/2000/svg" xmlns:xlink="http://www.w3.org/1999/xlink" x="0px" y="0px"
	 width="135px" height="275px" viewBox="0 0 135 275" enable-background="new 0 0 135 275" xml:space="preserve">
<g id="_x34_zX1Dd.tif" display="none">
	
		<image display="inline" overflow="visible" width="800" height="600" id="Layer_0_4_" xlink:href="24A5361B01621277.png"  transform="matrix(1.4682 0 0 1.3411 -896.6668 -130.7268)">
	</image>
</g>
<g id="Macbook_Pro" display="none">
	<g display="inline">
		<path fill="#FFFFFF" stroke="#000000" stroke-width="3" stroke-miterlimit="10" d="M130.5,529.774
			c0,2.855-2.411,5.169-5.386,5.169h-966.228c-2.975,0-5.386-2.314-5.386-5.169v-19.328c0-2.855,2.411-5.169,5.386-5.169h966.228
			c2.975,0,5.386,2.314,5.386,5.169V529.774z"/>
		<path fill="#FFFFFF" stroke="#000000" stroke-width="3" stroke-miterlimit="10" d="M23.61,475.932
			c0,16.207-0.245,29.345-0.245,29.345h-762.731c0,0-0.245-13.138-0.245-29.345V33.391c0-16.207,13.252-29.345,29.599-29.345H-5.989
			c16.347,0,29.599,13.138,29.599,29.345V475.932z"/>
		<g>
			<path fill="#FFFFFF" d="M-361.669,24.138c-1.906,0-3.457-1.551-3.457-3.457s1.551-3.457,3.457-3.457s3.457,1.551,3.457,3.457
				S-359.763,24.138-361.669,24.138z"/>
			<path d="M-361.669,18.724c1.081,0,1.957,0.876,1.957,1.957s-0.876,1.957-1.957,1.957s-1.957-0.876-1.957-1.957
				S-362.75,18.724-361.669,18.724 M-361.669,15.724c-2.733,0-4.957,2.224-4.957,4.957s2.224,4.957,4.957,4.957
				s4.957-2.224,4.957-4.957S-358.936,15.724-361.669,15.724L-361.669,15.724z"/>
		</g>
		<path fill="none" stroke="#000000" stroke-width="3" stroke-miterlimit="10" d="M-427.936,505.461v6.41
			c0,4.323,3.417,7.828,7.633,7.828h125.701c4.216,0,7.633-3.505,7.633-7.828v-6.41"/>
		
			<rect x="-709.735" y="34.537" fill="#FFFFFF" stroke="#000000" stroke-width="3" stroke-miterlimit="10" width="704" height="438"/>
	</g>
</g>
<g id="iPad" display="none">
	<path display="inline" fill="#FFFFFF" stroke="#000000" stroke-width="3" stroke-miterlimit="10" d="M-193.468,440.453
		c-8.32,0-15.065-6.691-15.065-14.945V16.945c0-8.254,6.745-14.945,15.065-14.945h310.403C125.255,2,132,8.691,132,16.945v408.563
		c0,8.254-6.745,14.945-15.065,14.945H-193.468z"/>
	
		<rect x="-172.798" y="39.487" display="inline" fill-rule="evenodd" clip-rule="evenodd" fill="none" stroke="#000000" stroke-width="3" stroke-miterlimit="10" width="269.063" height="358.75"/>
	<g display="inline">
		<path fill="#FFFFFF" d="M-38.266,23.907c-1.6,0-2.901-1.302-2.901-2.901s1.302-2.901,2.901-2.901s2.901,1.302,2.901,2.901
			S-36.667,23.907-38.266,23.907z"/>
		<path d="M-38.266,19.605c0.774,0,1.401,0.627,1.401,1.401c0,0.774-0.627,1.401-1.401,1.401s-1.401-0.627-1.401-1.401
			C-39.668,20.232-39.04,19.605-38.266,19.605 M-38.266,16.605c-2.427,0-4.401,1.974-4.401,4.401s1.974,4.401,4.401,4.401
			s4.401-1.974,4.401-4.401S-35.839,16.605-38.266,16.605L-38.266,16.605z"/>
	</g>
	<g display="inline">
		<path d="M-38.266,408.391c6.087,0,11.021,4.934,11.021,11.021c0,6.086-4.934,11.021-11.021,11.021s-11.021-4.934-11.021-11.021
			C-49.287,413.325-44.353,408.391-38.266,408.391 M-38.266,405.391c-7.731,0-14.021,6.29-14.021,14.021s6.29,14.021,14.021,14.021
			s14.021-6.29,14.021-14.021S-30.535,405.391-38.266,405.391L-38.266,405.391z"/>
	</g>
	<path display="inline" fill="none" stroke="#000000" stroke-width="3" stroke-miterlimit="10" d="M-40.939,423.925
		c-1.016,0-1.84-0.824-1.84-1.84v-5.346c0-1.016,0.824-1.84,1.84-1.84h5.346c1.016,0,1.84,0.824,1.84,1.84v5.346
		c0,1.016-0.824,1.84-1.84,1.84H-40.939z"/>
</g>
<g id="iPhone">
	<path fill="#FFFFFF" stroke="#000000" stroke-width="3" stroke-miterlimit="10" d="M22.926,271.939
		c-10.81,0-19.573-8.763-19.573-19.573V21.573C3.353,10.763,12.117,2,22.926,2h89.501C123.237,2,132,10.763,132,21.573v230.793
		c0,10.81-8.763,19.573-19.573,19.573H22.926z"/>
	<g>
		<path d="M67.677,241.182c5.858,0,10.608,4.749,10.608,10.608c0,5.858-4.749,10.608-10.608,10.608
			c-5.859,0-10.608-4.749-10.608-10.608C57.069,245.932,61.818,241.182,67.677,241.182 M67.677,238.182
			c-7.503,0-13.608,6.104-13.608,13.608c0,7.503,6.104,13.608,13.608,13.608s13.608-6.104,13.608-13.608
			C81.284,244.287,75.18,238.182,67.677,238.182L67.677,238.182z"/>
	</g>
	<path fill="none" stroke="#000000" stroke-width="3" stroke-miterlimit="10" d="M65.104,256.134c-0.978,0-1.771-0.793-1.771-1.771
		v-5.146c0-0.978,0.793-1.771,1.771-1.771h5.146c0.978,0,1.771,0.793,1.771,1.771v5.146c0,0.978-0.793,1.771-1.771,1.771H65.104z"/>
	
		<rect x="13.723" y="40.778" fill-rule="evenodd" clip-rule="evenodd" fill="none" stroke="#000000" stroke-width="3" stroke-miterlimit="10" width="107.907" height="191.538"/>
	
		<circle fill-rule="evenodd" clip-rule="evenodd" fill="none" stroke="#000000" stroke-width="3" stroke-miterlimit="10" cx="67.677" cy="22.064" r="2.528"/>
</g>
</svg>
