<?xml version="1.0" encoding="utf-8"?>
<!-- Generator: Adobe Illustrator 17.0.0, SVG Export Plug-In . SVG Version: 6.00 Build 0)  -->
<!DOCTYPE svg PUBLIC "-//W3C//DTD SVG 1.1//EN" "http://www.w3.org/Graphics/SVG/1.1/DTD/svg11.dtd">
<svg version="1.1" id="Calque_9" xmlns="http://www.w3.org/2000/svg" xmlns:xlink="http://www.w3.org/1999/xlink" x="0px" y="0px"
	 width="980px" height="540px" viewBox="0 0 980 540" enable-background="new 0 0 980 540" xml:space="preserve">
<g>
	<g id="Macbook_Pro">
		<g>
			<path fill="none" stroke="#000000" stroke-width="3" stroke-miterlimit="10" d="M978.5,529.774c0,2.855-2.411,5.169-5.386,5.169
				H6.886c-2.975,0-5.386-2.314-5.386-5.169v-19.328c0-2.855,2.411-5.169,5.386-5.169h966.228c2.975,0,5.386,2.314,5.386,5.169
				V529.774z"/>
			<path fill="none" stroke="#000000" stroke-width="3" stroke-miterlimit="10" d="M871.61,475.932
				c0,16.207-0.245,29.345-0.245,29.345H108.634c0,0-0.245-13.138-0.245-29.345V33.391c0-16.207,13.252-29.345,29.599-29.345
				h704.022c16.347,0,29.599,13.138,29.599,29.345V475.932z"/>
			<g>
				<path d="M486.331,18.724c1.081,0,1.957,0.876,1.957,1.957s-0.876,1.957-1.957,1.957s-1.957-0.876-1.957-1.957
					S485.25,18.724,486.331,18.724 M486.331,15.724c-2.733,0-4.957,2.224-4.957,4.957s2.224,4.957,4.957,4.957
					c2.733,0,4.957-2.224,4.957-4.957S489.064,15.724,486.331,15.724L486.331,15.724z"/>
			</g>
			<path fill="none" stroke="#000000" stroke-width="3" stroke-miterlimit="10" d="M420.064,505.461v6.41
				c0,4.323,3.417,7.828,7.633,7.828h125.701c4.216,0,7.633-3.505,7.633-7.828v-6.41"/>
			<rect x="138.265" y="34.537" fill="none" stroke="#000000" stroke-width="3" stroke-miterlimit="10" width="704" height="438"/>
		</g>
	</g>
	<g id="iPad">
		
			<rect x="236.205" y="720.813" fill-rule="evenodd" clip-rule="evenodd" fill="none" stroke="#000000" stroke-width="3" stroke-miterlimit="10" width="500.986" height="375.739"/>
		<path fill="none" stroke="#000000" stroke-width="3" stroke-miterlimit="10" d="M796.144,1125.418
			c0,11.619-9.344,21.038-20.871,21.038H204.726c-11.527,0-20.871-9.419-20.871-21.038v-433.47c0-11.619,9.344-21.038,20.871-21.038
			h570.547c11.527,0,20.871,9.419,20.871,21.038V1125.418z"/>
		<g>
			<path fill="#FFFFFF" d="M210.397,912.14c-1.906,0-3.457-1.551-3.457-3.457s1.551-3.457,3.457-3.457s3.457,1.551,3.457,3.457
				S212.303,912.14,210.397,912.14z"/>
			<path d="M210.397,906.726c1.081,0,1.957,0.876,1.957,1.957s-0.876,1.957-1.957,1.957s-1.957-0.876-1.957-1.957
				S209.316,906.726,210.397,906.726 M210.397,903.726c-2.733,0-4.957,2.224-4.957,4.957c0,2.733,2.224,4.957,4.957,4.957
				c2.733,0,4.957-2.224,4.957-4.957C215.354,905.949,213.13,903.726,210.397,903.726L210.397,903.726z"/>
		</g>
		<g>
			<path d="M766.76,893.292c8.5,0,15.39,6.891,15.39,15.39c0,8.5-6.89,15.39-15.39,15.39c-8.5,0-15.39-6.891-15.39-15.39
				C751.37,900.183,758.261,893.292,766.76,893.292 M766.76,890.292c-10.14,0-18.39,8.25-18.39,18.39s8.25,18.39,18.39,18.39
				c10.14,0,18.39-8.25,18.39-18.39S776.901,890.292,766.76,890.292L766.76,890.292z"/>
		</g>
		<path fill="none" stroke="#000000" stroke-width="3" stroke-miterlimit="10" d="M773.063,912.416c0,1.419-1.15,2.57-2.57,2.57
			h-7.466c-1.419,0-2.57-1.15-2.57-2.57v-7.466c0-1.419,1.15-2.57,2.57-2.57h7.466c1.419,0,2.57,1.15,2.57,2.57V912.416z"/>
	</g>
	<g id="iPhone">
		<path fill="none" stroke="#000000" stroke-width="3" stroke-miterlimit="10" d="M685.82,1445.044
			c0,15.683-12.714,28.397-28.397,28.397H322.578c-15.683,0-28.397-12.714-28.397-28.397v-129.852
			c0-15.683,12.714-28.397,28.397-28.397h334.845c15.683,0,28.397,12.714,28.397,28.397V1445.044z"/>
		<g>
			<path d="M656.588,1364.728c8.5,0,15.39,6.89,15.39,15.39s-6.89,15.39-15.39,15.39s-15.39-6.89-15.39-15.39
				S648.088,1364.728,656.588,1364.728 M656.588,1361.728c-10.14,0-18.39,8.25-18.39,18.39s8.25,18.39,18.39,18.39
				s18.39-8.25,18.39-18.39S666.728,1361.728,656.588,1361.728L656.588,1361.728z"/>
		</g>
		<path fill="none" stroke="#000000" stroke-width="3" stroke-miterlimit="10" d="M662.89,1383.851c0,1.419-1.15,2.57-2.57,2.57
			h-7.466c-1.419,0-2.57-1.15-2.57-2.57v-7.466c0-1.419,1.15-2.57,2.57-2.57h7.466c1.419,0,2.57,1.151,2.57,2.57V1383.851z"/>
		
			<rect x="350.441" y="1301.84" fill-rule="evenodd" clip-rule="evenodd" fill="none" stroke="#000000" stroke-width="3" stroke-miterlimit="10" width="277.892" height="156.557"/>
		
			<circle fill-rule="evenodd" clip-rule="evenodd" fill="none" stroke="#000000" stroke-width="3" stroke-miterlimit="10" cx="323.29" cy="1380.118" r="3.668"/>
	</g>
</g>
</svg>
